<svg width="256" height="256" viewBox="0 0 256 256" fill="none" xmlns="http://www.w3.org/2000/svg">
<path fill-rule="evenodd" clip-rule="evenodd" d="M136.94 152.64L141.991 157.943L156.638 144.306L151.588 139.003L136.94 152.64Z" fill="url(#paint0_linear_50383_4)"/>
<g filter="url(#filter0_f_50383_4)">
<path d="M90.8101 12.83C48.9531 13.8916 15.3101 48.218 15.3101 90.33C15.3101 133.11 50.0301 167.83 92.8101 167.83C135.59 167.83 170.31 133.11 170.31 90.33C170.31 47.55 135.59 12.83 92.8101 12.83C92.1421 12.83 91.4751 12.8131 90.8101 12.83ZM92.8101 20.33C131.45 20.33 162.81 51.69 162.81 90.33C162.81 128.97 131.45 160.33 92.8101 160.33C54.1701 160.33 22.8101 128.97 22.8101 90.33C22.8101 51.69 54.1701 20.33 92.8101 20.33Z" fill="black"/>
</g>
<path d="M90.8101 12.83C48.9531 13.8916 15.3101 48.218 15.3101 90.33C15.3101 133.11 50.0301 167.83 92.8101 167.83C135.59 167.83 170.31 133.11 170.31 90.33C170.31 47.55 135.59 12.83 92.8101 12.83C92.1421 12.83 91.4751 12.8131 90.8101 12.83ZM92.8101 20.33C131.45 20.33 162.81 51.69 162.81 90.33C162.81 128.97 131.45 160.33 92.8101 160.33C54.1701 160.33 22.8101 128.97 22.8101 90.33C22.8101 51.69 54.1701 20.33 92.8101 20.33Z" fill="url(#paint1_radial_50383_4)"/>
<path d="M114.76 26.555C91.0469 17.9194 51.031 22.3942 40.174 53.683C51.925 54.3811 68.5419 65.896 80.4499 70.232C118.226 83.988 147.335 88.072 155.128 119.909C155.639 118.715 156.132 117.517 156.582 116.282C169.804 79.974 151.068 39.776 114.76 26.555Z" fill="url(#paint2_linear_50383_4)"/>
<path opacity="0.7" d="M28.5599 92.267C29.0388 107.713 35.112 122.485 45.4659 133.799L52.4034 126.361C42.2014 117.25 33.7309 106.045 28.5599 92.267ZM53.6849 127.486L46.6849 135.111C53.2329 141.875 61.3749 147.3 70.8099 150.736C81.1889 154.516 91.9069 155.433 102.123 153.924C85.4889 148.236 67.9839 139.836 53.6849 127.486Z" fill="url(#paint3_linear_50383_4)"/>
<path fill-rule="evenodd" clip-rule="evenodd" d="M138.56 160.55L218.019 248.494C226.353 245.211 237.882 233.465 241.922 225.889L160.285 139.713L138.56 160.55Z" fill="url(#paint4_linear_50383_4)" stroke="black" stroke-linejoin="bevel"/>
<g opacity="0.2" filter="url(#filter1_f_50383_4)">
<path d="M91.58 18.007C52.45 18.9995 21 51.089 21 90.457C21 130.449 53.457 162.906 93.45 162.906C133.442 162.906 165.899 130.449 165.899 90.457C165.899 50.465 133.442 18.007 93.45 18.007C92.825 18.007 92.201 17.9913 91.58 18.007ZM93.45 25.0182C129.571 25.0182 158.888 54.3342 158.888 90.4562C158.888 126.578 129.571 155.894 93.45 155.894C57.328 155.894 28.011 126.578 28.011 90.4562C28.011 54.3342 57.327 25.0182 93.45 25.0182Z" fill="black"/>
</g>
<defs>
<filter id="filter0_f_50383_4" x="13.76" y="11.2725" width="158.1" height="158.108" filterUnits="userSpaceOnUse" color-interpolation-filters="sRGB">
<feFlood flood-opacity="0" result="BackgroundImageFix"/>
<feBlend mode="normal" in="SourceGraphic" in2="BackgroundImageFix" result="shape"/>
<feGaussianBlur stdDeviation="0.775019" result="effect1_foregroundBlur_50383_4"/>
</filter>
<filter id="filter1_f_50383_4" x="18.1019" y="15.1019" width="150.695" height="150.702" filterUnits="userSpaceOnUse" color-interpolation-filters="sRGB">
<feFlood flood-opacity="0" result="BackgroundImageFix"/>
<feBlend mode="normal" in="SourceGraphic" in2="BackgroundImageFix" result="shape"/>
<feGaussianBlur stdDeviation="1.44903" result="effect1_foregroundBlur_50383_4"/>
</filter>
<linearGradient id="paint0_linear_50383_4" x1="140.476" y1="155.165" x2="157.05" y2="138.353" gradientUnits="userSpaceOnUse">
<stop stop-color="#999999"/>
<stop offset="0.55469" stop-color="#F2F2F2"/>
<stop offset="1" stop-color="#B3B3B3"/>
</linearGradient>
<radialGradient id="paint1_radial_50383_4" cx="0" cy="0" r="1" gradientUnits="userSpaceOnUse" gradientTransform="translate(147.619 154.703) rotate(-120) scale(238.328 238.561)">
<stop/>
<stop offset="1" stop-color="white"/>
</radialGradient>
<linearGradient id="paint2_linear_50383_4" x1="141.17" y1="39.0309" x2="65.058" y2="114.863" gradientUnits="userSpaceOnUse">
<stop stop-color="white"/>
<stop offset="1" stop-color="white" stop-opacity="0"/>
</linearGradient>
<linearGradient id="paint3_linear_50383_4" x1="46.3567" y1="136.5" x2="66.6605" y2="110.982" gradientUnits="userSpaceOnUse">
<stop stop-color="white"/>
<stop offset="1" stop-color="white" stop-opacity="0"/>
</linearGradient>
<linearGradient id="paint4_linear_50383_4" x1="179.57" y1="207.571" x2="208.813" y2="182.714" gradientUnits="userSpaceOnUse">
<stop stop-color="#1C3E47"/>
<stop offset="0.42765" stop-color="#88AEB9"/>
<stop offset="0.5845" stop-color="#B9D0D6"/>
<stop offset="0.74486" stop-color="#88AEB9"/>
<stop offset="1" stop-color="#2D5059"/>
</linearGradient>
</defs>
</svg>
